<mxfile host="app.diagrams.net" modified="2021-09-01T06:31:55.562Z" agent="5.0 (Windows NT 10.0; Win64; x64) AppleWebKit/537.36 (KHTML, like Gecko) Chrome/92.0.4515.159 Safari/537.36" etag="IrjmWnt8H8RSNiy58cI1" version="15.0.3" type="github">
  <diagram id="KHF3QrRdq-dTTPWGwo4x" name="Page-1">
    <mxGraphModel dx="1038" dy="579" grid="1" gridSize="10" guides="1" tooltips="1" connect="1" arrows="1" fold="1" page="1" pageScale="1" pageWidth="827" pageHeight="1169" math="0" shadow="0">
      <root>
        <mxCell id="0" />
        <mxCell id="1" parent="0" />
        <mxCell id="cQNMakE7CuAcEtCN-uI9-2" value="Octopus" style="swimlane;fontStyle=1;align=center;verticalAlign=middle;childLayout=stackLayout;horizontal=1;startSize=29;horizontalStack=0;resizeParent=1;resizeParentMax=0;resizeLast=0;collapsible=0;marginBottom=0;html=1;" vertex="1" parent="1">
          <mxGeometry x="460" y="268" width="140" height="54" as="geometry" />
        </mxCell>
        <mxCell id="cQNMakE7CuAcEtCN-uI9-6" style="edgeStyle=orthogonalEdgeStyle;rounded=0;orthogonalLoop=1;jettySize=auto;html=1;" edge="1" parent="1" source="cQNMakE7CuAcEtCN-uI9-5" target="cQNMakE7CuAcEtCN-uI9-2">
          <mxGeometry relative="1" as="geometry" />
        </mxCell>
        <mxCell id="cQNMakE7CuAcEtCN-uI9-5" value="Animal" style="swimlane;fontStyle=1;align=center;verticalAlign=middle;childLayout=stackLayout;horizontal=1;startSize=29;horizontalStack=0;resizeParent=1;resizeParentMax=0;resizeLast=0;collapsible=0;marginBottom=0;html=1;" vertex="1" parent="1">
          <mxGeometry x="460" y="120" width="140" height="54" as="geometry" />
        </mxCell>
        <mxCell id="cQNMakE7CuAcEtCN-uI9-11" style="edgeStyle=orthogonalEdgeStyle;rounded=0;orthogonalLoop=1;jettySize=auto;html=1;entryX=0.951;entryY=0.53;entryDx=0;entryDy=0;entryPerimeter=0;" edge="1" parent="1" source="cQNMakE7CuAcEtCN-uI9-7" target="cQNMakE7CuAcEtCN-uI9-5">
          <mxGeometry relative="1" as="geometry" />
        </mxCell>
        <mxCell id="cQNMakE7CuAcEtCN-uI9-7" value="«interface»&lt;br&gt;&lt;b&gt;Movement&lt;/b&gt;" style="html=1;" vertex="1" parent="1">
          <mxGeometry x="717" y="124" width="110" height="50" as="geometry" />
        </mxCell>
        <mxCell id="cQNMakE7CuAcEtCN-uI9-10" style="edgeStyle=orthogonalEdgeStyle;rounded=0;orthogonalLoop=1;jettySize=auto;html=1;" edge="1" parent="1" source="cQNMakE7CuAcEtCN-uI9-9" target="cQNMakE7CuAcEtCN-uI9-5">
          <mxGeometry relative="1" as="geometry" />
        </mxCell>
        <mxCell id="cQNMakE7CuAcEtCN-uI9-9" value="&lt;p style=&quot;margin: 5px&quot;&gt;{abstract}&lt;br&gt;&lt;b&gt;&lt;i&gt;Kingdom&lt;/i&gt;&lt;/b&gt;&lt;/p&gt;&lt;p style=&quot;margin: 5px&quot;&gt;&lt;b&gt;&lt;i&gt;&lt;br&gt;&lt;/i&gt;&lt;/b&gt;&lt;/p&gt;" style="shape=rect;html=1;overflow=fill;whiteSpace=wrap;align=center;" vertex="1" parent="1">
          <mxGeometry x="490" y="20" width="80" height="40" as="geometry" />
        </mxCell>
      </root>
    </mxGraphModel>
  </diagram>
</mxfile>
